<?xml version="1.0" encoding="UTF-8" standalone="no"?>
<!DOCTYPE svg PUBLIC "-//W3C//DTD SVG 20010904//EN"
              "http://www.w3.org/TR/2001/REC-SVG-20010904/DTD/svg10.dtd">

<svg xmlns="http://www.w3.org/2000/svg"
     width="6.94444in" height="2.88889in"
     viewBox="0 0 500 208">
  <path id="Selection #1"
        fill="none" stroke="black" stroke-width="1"
        d="M 74.00,155.00
           C 69.16,154.13 58.70,154.22 55.39,151.42
             50.89,147.61 47.00,131.08 46.13,125.00
             42.23,97.85 49.56,69.94 69.01,50.00
             79.40,39.36 88.13,32.95 102.00,27.45
             150.15,8.34 204.46,34.78 220.25,84.00
             227.32,106.04 224.76,130.28 215.00,151.00
             215.00,151.00 217.00,153.00 217.00,153.00
             217.00,153.00 202.00,156.00 202.00,156.00
             202.00,156.00 220.41,158.02 220.41,158.02
             220.41,158.02 222.00,161.00 222.00,161.00
             222.00,161.00 211.00,165.00 211.00,165.00
             211.00,165.00 224.00,167.00 224.00,167.00
             221.10,171.84 217.14,171.53 212.00,172.27
             212.00,172.27 185.00,175.00 185.00,175.00
             210.18,175.00 201.13,175.15 225.00,172.00
             225.00,172.00 219.00,176.00 219.00,176.00
             224.40,180.71 214.13,181.34 211.00,181.71
             201.46,182.84 197.66,179.17 193.91,178.29
             188.91,177.11 185.07,178.98 183.00,173.00
             183.00,173.00 175.00,171.00 175.00,171.00
             175.00,171.00 180.00,168.00 180.00,168.00
             170.93,168.00 164.79,168.85 156.00,166.00
             156.00,166.00 156.00,164.00 156.00,164.00
             156.00,164.00 168.00,160.00 168.00,160.00
             168.00,160.00 141.00,154.00 141.00,154.00
             141.00,154.00 141.00,152.00 141.00,152.00
             146.81,150.59 152.08,151.01 158.00,151.00
             160.45,151.00 163.72,151.13 166.00,150.26
             170.14,148.68 174.29,143.57 176.79,140.00
             183.87,129.90 187.50,116.26 185.56,104.00
             182.22,82.78 165.40,64.33 144.00,60.23
             140.55,59.84 135.59,59.96 132.00,60.23
             105.61,60.31 83.03,84.94 83.03,111.00
             83.03,123.12 90.77,143.90 102.00,149.55
             104.75,150.93 107.02,150.96 110.00,151.00
             121.62,151.15 123.93,148.51 136.00,152.00
             136.00,152.00 136.00,154.00 136.00,154.00
             136.00,154.00 108.00,160.00 108.00,160.00
             108.00,160.00 120.00,164.00 120.00,164.00
             120.00,164.00 120.00,166.00 120.00,166.00
             120.00,166.00 97.00,169.00 97.00,169.00
             97.00,169.00 101.00,170.00 101.00,170.00
             98.67,173.48 96.94,172.97 93.00,173.00
             78.59,173.10 65.64,174.41 52.00,169.00
             52.00,169.00 52.00,167.00 52.00,167.00
             57.10,165.74 59.89,166.49 64.00,163.00
             59.24,162.55 57.41,162.38 55.00,158.00
             55.00,158.00 74.00,155.00 74.00,155.00 Z
           M 121.00,82.00
           C 118.36,66.33 152.15,66.51 149.00,82.00
             159.44,84.98 162.60,90.78 165.00,101.00
             165.00,101.00 158.00,100.00 158.00,100.00
             165.73,102.21 178.12,109.50 185.00,114.00
             185.00,114.00 185.00,116.00 185.00,116.00
             176.49,119.81 173.70,123.55 169.86,132.00
             168.27,135.51 164.61,145.07 161.61,146.98
             159.80,148.13 157.08,147.99 155.00,148.00
             155.00,148.00 134.00,148.00 134.00,148.00
             134.00,148.00 134.00,93.00 134.00,93.00
             134.00,93.00 150.00,95.00 150.00,95.00
             150.00,95.00 133.00,92.04 133.00,92.04
             133.00,92.04 105.00,100.00 105.00,100.00
             108.29,90.16 110.24,85.08 121.00,82.00 Z
           M 369.00,109.00
           C 374.54,111.66 381.57,116.14 388.00,115.72
             392.42,115.44 396.56,112.25 393.46,108.39
             389.09,102.93 371.50,103.55 367.74,93.98
             366.98,92.05 366.97,89.09 367.02,87.00
             367.29,75.54 377.44,69.80 388.00,70.37
             394.75,70.74 400.09,72.97 406.00,76.00
             406.00,76.00 402.00,86.00 402.00,86.00
             402.00,86.00 393.00,82.47 393.00,82.47
             389.87,81.28 386.28,80.56 383.06,81.89
             379.45,83.38 378.36,86.62 381.32,89.49
             386.31,94.34 402.46,92.94 406.99,104.00
             407.89,106.19 408.04,108.66 407.96,111.00
             407.53,122.66 396.44,127.47 386.00,126.68
             376.58,125.96 372.37,123.60 364.00,120.00
             364.00,120.00 369.00,109.00 369.00,109.00 Z
           M 448.00,121.00
           C 442.09,125.22 439.29,126.30 432.00,125.96
             425.70,125.66 421.48,123.39 417.04,118.96
             405.35,107.27 405.18,85.95 419.01,75.79
             430.77,67.15 450.77,68.65 456.00,84.00
             456.00,84.00 446.00,89.00 446.00,89.00
             443.42,85.43 440.64,82.10 436.00,81.38
             426.88,79.97 420.20,90.95 420.61,99.00
             421.45,115.61 440.17,122.41 448.00,106.00
             448.00,106.00 437.00,106.00 437.00,106.00
             437.00,106.00 437.00,97.00 437.00,97.00
             437.00,97.00 458.00,97.00 458.00,97.00
             458.00,97.00 458.00,126.00 458.00,126.00
             458.00,126.00 448.00,126.00 448.00,126.00
             448.00,126.00 448.00,121.00 448.00,121.00 Z
           M 287.00,71.00
           C 290.00,71.00 295.03,70.46 297.30,72.60
             299.27,74.44 302.38,83.93 303.60,87.00
             306.83,95.14 316.90,118.96 318.00,126.00
             315.72,126.00 309.17,126.26 307.39,125.43
             303.99,123.82 302.53,116.42 302.00,113.00
             298.46,113.00 286.91,112.37 284.42,114.02
             281.88,115.71 279.80,123.02 279.00,126.00
             279.00,126.00 266.00,126.00 266.00,126.00
             266.00,126.00 287.00,71.00 287.00,71.00 Z
           M 320.00,71.00
           C 320.00,71.00 347.00,71.00 347.00,71.00
             349.86,71.04 352.35,71.08 354.96,72.45
             361.25,75.76 363.57,84.63 360.99,91.00
             359.88,93.75 357.94,95.82 356.00,98.00
             366.60,103.84 367.43,118.65 356.00,124.08
             349.35,127.24 328.35,126.00 320.00,126.00
             320.00,126.00 320.00,71.00 320.00,71.00 Z
           M 139.00,76.00
           C 139.00,76.00 131.00,77.00 131.00,77.00
             131.00,77.00 139.00,76.00 139.00,76.00 Z
           M 125.00,79.00
           C 125.00,79.00 124.00,79.00 124.00,79.00
             124.00,79.00 125.00,80.00 125.00,80.00
             125.00,80.00 125.00,79.00 125.00,79.00 Z
           M 146.00,79.00
           C 146.00,79.00 145.00,79.00 145.00,79.00
             145.00,79.00 146.00,80.00 146.00,80.00
             146.00,80.00 146.00,79.00 146.00,79.00 Z
           M 332.00,93.00
           C 335.27,93.00 345.33,93.55 347.69,91.98
             350.68,89.98 350.68,84.17 347.69,82.17
             345.02,80.40 334.61,81.00 331.00,81.00
             331.00,81.00 332.00,93.00 332.00,93.00 Z
           M 293.00,85.00
           C 293.00,85.00 286.00,104.00 286.00,104.00
             286.00,104.00 299.00,104.00 299.00,104.00
             299.00,104.00 293.00,85.00 293.00,85.00 Z
           M 154.00,97.00
           C 154.00,97.00 153.00,98.00 153.00,98.00
             153.00,98.00 158.00,98.00 158.00,98.00
             158.00,98.00 154.00,97.00 154.00,97.00 Z
           M 332.00,116.00
           C 335.91,116.00 345.81,116.60 348.87,114.83
             352.72,112.60 353.45,106.77 349.58,104.17
             346.87,102.35 334.82,103.00 331.00,103.00
             331.00,103.00 332.00,116.00 332.00,116.00 Z
           M 279.00,152.00
           C 274.73,147.49 271.30,148.21 270.33,143.95
             268.41,135.47 278.25,136.80 283.00,139.00
             283.00,139.00 283.00,141.00 283.00,141.00
             283.00,141.00 274.00,141.00 274.00,141.00
             277.30,146.28 281.67,144.48 283.21,149.11
             283.76,150.76 283.44,152.35 282.39,153.86
             278.93,158.25 273.10,155.99 269.00,153.86
             269.00,153.86 272.00,150.00 272.00,150.00
             272.00,150.00 279.00,152.00 279.00,152.00 Z
           M 295.00,137.00
           C 295.00,137.00 309.00,137.00 309.00,137.00
             309.00,137.00 309.00,141.00 309.00,141.00
             309.00,141.00 299.00,142.00 299.00,142.00
             299.00,142.00 300.00,144.00 300.00,144.00
             300.00,144.00 299.00,145.00 299.00,145.00
             299.00,145.00 308.00,145.00 308.00,145.00
             308.00,145.00 308.00,149.00 308.00,149.00
             308.00,149.00 299.00,149.00 299.00,149.00
             299.00,149.00 300.00,150.00 300.00,150.00
             300.00,150.00 299.00,152.00 299.00,152.00
             299.00,152.00 309.00,152.00 309.00,152.00
             309.00,152.00 309.00,156.00 309.00,156.00
             309.00,156.00 295.00,156.00 295.00,156.00
             295.00,156.00 295.00,137.00 295.00,137.00 Z
           M 321.00,137.00
           C 325.29,137.00 333.22,136.34 335.26,141.14
             336.69,144.52 334.66,147.57 334.71,149.96
             334.76,152.01 336.20,154.13 337.00,156.00
             329.68,155.41 330.85,152.98 325.00,150.00
             325.00,150.00 325.00,156.00 325.00,156.00
             325.00,156.00 321.00,156.00 321.00,156.00
             321.00,156.00 321.00,137.00 321.00,137.00 Z
           M 346.00,137.00
           C 352.07,138.06 352.73,142.57 354.00,148.00
             354.00,148.00 356.00,148.00 356.00,148.00
             357.27,142.57 357.93,138.06 364.00,137.00
             363.24,141.84 361.42,146.53 359.38,150.98
             358.54,152.83 357.41,155.37 355.00,155.37
             350.40,155.37 346.60,140.81 346.00,137.00 Z
           M 375.00,137.00
           C 375.00,137.00 379.00,137.00 379.00,137.00
             379.00,137.00 379.00,156.00 379.00,156.00
             379.00,156.00 375.00,156.00 375.00,156.00
             375.00,156.00 375.00,137.00 375.00,137.00 Z
           M 408.00,154.00
           C 405.75,154.99 403.50,156.09 401.00,156.22
             399.39,156.31 397.51,156.00 396.04,155.34
             390.94,153.02 389.39,145.62 392.60,141.11
             396.66,135.39 404.63,135.70 408.00,142.15
             403.51,142.72 401.50,141.25 399.06,142.15
             395.31,143.91 394.39,148.82 398.23,150.94
             402.41,153.24 404.51,148.22 408.00,154.00 Z
           M 419.00,137.00
           C 419.00,137.00 433.00,137.00 433.00,137.00
             433.00,137.00 433.00,141.00 433.00,141.00
             433.00,141.00 424.00,141.00 424.00,141.00
             424.00,141.00 423.00,145.00 423.00,145.00
             423.00,145.00 432.00,145.00 432.00,145.00
             432.00,145.00 432.00,149.00 432.00,149.00
             432.00,149.00 424.00,149.00 424.00,149.00
             424.00,149.00 424.00,152.00 424.00,152.00
             424.00,152.00 433.00,152.00 433.00,152.00
             433.00,152.00 433.00,156.00 433.00,156.00
             433.00,156.00 419.00,156.00 419.00,156.00
             419.00,156.00 419.00,137.00 419.00,137.00 Z
           M 455.00,150.00
           C 451.99,148.79 446.75,147.28 445.66,143.90
             443.80,138.14 453.20,135.54 457.00,141.00
             457.00,141.00 448.00,141.00 448.00,141.00
             451.37,147.04 455.74,144.87 457.16,149.21
             458.76,154.13 451.17,159.54 444.00,152.00
             450.20,151.34 450.33,154.20 455.00,150.00 Z
           M 332.00,142.00
           C 332.00,142.00 325.00,141.00 325.00,141.00
             325.00,141.00 325.00,146.00 325.00,146.00
             329.17,145.85 330.52,146.21 332.00,142.00 Z
           M 137.00,146.00
           C 137.00,146.00 136.00,146.00 136.00,146.00
             136.00,146.00 137.00,147.00 137.00,147.00
             137.00,147.00 137.00,146.00 137.00,146.00 Z" />
</svg>
